<svg version="1.1" id="Слой_1" xmlns="http://www.w3.org/2000/svg" x="0" y="0" viewBox="0 0 32 32" xml:space="preserve"><style>.st2{fill:#f8d17b}.st3{fill:#e68c24}.st4{fill:#5b2b16}.st5{fill:#b6531d}.st6{fill:#c0581d}.st7{fill:#cb641b}.st8{fill:#793619}.st9{fill:#dd7e1d}.st10{fill:#532914}.st12{fill:#a94f1f}.st13{fill:#8d3d1d}.st14{fill:#672f17}.st15{fill:#bf5e21}.st16{fill:#d89e32}.st17{fill:#f4bb47}</style><path d="M18.045 3.594s1.57.13 3.763 1.268 2.585.794 3.888 2.466C27 9 27 11.998 27 11.998l-.796 4.093.424.38s.348 1.719-.64 2.624-1.237 1.45-1.237 1.45l1.61 4.76-6.105 3.491-2.31 2.644-1.292.55-1.53-.5-2.136-2.486-6.355-3.598 1.546-4.282-.109-.747-.731-.762-.645-1.293-.254-1.361-.06-.476.308-.396S6 12.824 6 11.412s.539-3.668 1.27-4.04.898-1.118 3.314-2.245 4.382-1.536 4.382-1.536L17 4l1.045-.406z" fill="#333"/><path d="M6.069 13.031l-.042-.655c.002-.3.004-.6.004-.9 0-.02-.02-.042-.031-.064v-.125c.02-.14.047-.28.059-.42.071-.836.25-1.649.551-2.433.25-.647.694-1.157 1.215-1.609.824-.714 1.772-1.238 2.76-1.698.173-.081.354-.149.532-.223.025.292-.11.53-.31.718-.414.387-.86.742-1.27 1.133a2.96 2.96 0 00-.52.67c-.093.166-.102.379.064.546.169.17.344.337.496.522.11.134.21.286.273.446.101.258.03.399-.225.51-.31.135-.648.111-.974.158-.326.046-.657.078-.977.15-.264.059-.344.249-.29.515.04.2.07.407.074.611a8.93 8.93 0 01-.032.939c-.03.33-.158.623-.462.807-.193.116-.39.227-.593.325-.092.045-.201.053-.302.077z" fill="#ce602f"/><path class="st2" d="M6 11.412c.01.022.03.043.03.065.001.3-.001.6-.003.899a.154.154 0 01-.027.001v-.965z"/><path class="st3" d="M14.966 3.591c.14-.294.292-.583.42-.882.385-.905.76-1.814 1.134-2.709l.04.168-.008.309c-.01.538-.027 1.076-.03 1.614-.001.315.029.63.028.946-.008 3.406-.02 6.813-.028 10.22 0 .257.029.515.028.773-.002.357-.017.713-.03 1.07-.007.15-.019.299-.038.447-.017.133-.047.264-.072.397h-.053c-.03-.19-.058-.38-.092-.569a26.604 26.604 0 00-.15-.8c-.012-.053-.057-.099-.071-.122-.14.052-.248.125-.359.129-.315.011-.482-.224-.612-.449-.152-.263-.226-.57-.378-.833-.312-.544-.659-1.069-.98-1.608-.128-.214-.227-.445-.339-.668-.103-.204-.184-.423-.314-.609-.196-.28-.49-.492-.539-.87-.02-.159-.181-.184-.319-.086-.17.12-.35.23-.516.357-.13.1-.26.209-.364.335-.061.075-.062.195-.107.286-.148.301-.303.6-.459.898-.092.177-.117.334.017.518.18.245.145.313-.142.42-.211.078-.434.135-.632.236-.289.147-.586.294-.718.623-.113.28-.358.454-.58.643-.052.044-.126.065-.19.096.464-.63.933-1.255 1.388-1.89.373-.52.731-1.049 1.094-1.575.19-.276.378-.554.566-.831l.49-.742a40.576 40.576 0 002.509-4.367c.143-.288.27-.583.406-.875zm1.086 7.688l.051.004c.022-.054.06-.106.065-.161.036-.359.084-.718.093-1.077.01-.408-.023-.817-.024-1.226-.001-.311.029-.623.027-.934-.006-1.146-.023-2.29-.028-3.436-.002-.442.023-.884.028-1.327a4.835 4.835 0 00-.034-.555c-.004-.041-.052-.09-.093-.11-.018-.009-.085.036-.101.07-.108.22-.218.441-.309.67-.068.172-.095.36-.167.531a16.78 16.78 0 01-.448.972 2.548 2.548 0 01-.284.441c-.183.231-.367.456-.506.721-.175.334-.393.646-.604.96-.17.257-.29.514-.17.826.044.115.093.234.105.355.03.305.177.532.434.7.143.094.307.173.42.295.35.372.683.759 1.011 1.149.092.109.155.246.214.377.113.249.214.503.32.755zm-.004 2.75c.225-.324.235-1.85.035-2.032-.539.658-.448 1.335-.035 2.031z"/><path class="st4" d="M19.603 4.067c.056.008.115.008.167.027.643.236 1.298.448 1.925.72 1.02.44 2.036.9 2.932 1.568.432.323.844.667 1.187 1.083.48.584.73 1.27.904 1.987.317 1.312.356 2.637.17 3.969-.076.547-.198 1.09-.299 1.634-.036.003-.076 0-.109.012-.327.124-.645.126-.956-.051-.037-.022-.091-.016-.137-.024-.112-.136-.23-.268-.335-.408-.2-.265-.392-.535-.588-.802-.018-.261-.103-.539-.041-.78.108-.423-.293-.83-.589-.972-.278-.133-.55-.28-.827-.413-.046-.023-.109-.012-.164-.016-.024-.027-.05-.052-.07-.081-.222-.315-.442-.631-.663-.947l-.092-.14-.477-.73c-.033-.092-.055-.189-.101-.273-.133-.24-.288-.47-.413-.714-.29-.573-.592-1.142-.846-1.73a16.8 16.8 0 01-.566-1.585c-.063-.2-.113-.411-.072-.636.043-.229.042-.465.06-.698zm.916 1.268c-.195.007-.313.062-.341.21-.024.13-.043.27-.021.398.12.714.396 1.379.711 2.028.41.845.878 1.659 1.462 2.405.247.315.531.59.9.751.297.13.613.216.924.312.37.114.745.22 1.12.323.2.055.554-.096.66-.271.24-.395.258-.803.092-1.228a9.583 9.583 0 01-.254-.742c-.094-.32-.144-.655-.27-.962a1.993 1.993 0 00-.422-.624c-.168-.171-.39-.294-.6-.42-.201-.122-.425-.208-.624-.333-.589-.371-1.169-.755-1.755-1.13a5.743 5.743 0 00-1.306-.61c-.107-.035-.21-.08-.276-.107zm4.55 8.472a.889.889 0 00.609.817c.278.084.442-.003.502-.282a.893.893 0 00-.246-.852c-.233-.24-.28-.191-.593-.099-.204.06-.253.258-.271.416z"/><path class="st5" d="M20.081 28.888c-.113.114-.237.22-.34.343-.284.343-.56.693-.841 1.04-.317.39-.632.783-.955 1.169a.605.605 0 01-.235.17c-.349.135-.7.263-1.056.38-.08.026-.178-.005-.268-.01-.049-.106-.099-.212-.146-.319-.304-.69-.416-1.403-.234-2.142.037-.149.132-.284.2-.425.031.01.061.022.092.033l.092.063.064.031a.094.094 0 01.004.026c-.001.01 0 .022-.005.03-.31.55-.272 1.087.062 1.613.082.13.197.138.287.018.056-.075.116-.148.163-.228.159-.268.292-.553.472-.807.347-.491.645-1.015 1.055-1.467.182-.201.27-.486.392-.737a8.862 8.862 0 00.686-1.894c.205-.889.383-1.783.574-2.675.06-.282.141-.56.186-.845.086-.543.147-1.09.23-1.634.05-.327.208-.599.516-.757.41-.21.835-.395 1.24-.615.538-.294 1.08-.589 1.59-.926.318-.21.61-.477.861-.764.184-.21.284-.491.42-.742.054-.1.114-.199.15-.305.017-.053-.014-.122-.023-.184l-.025-.301c.055-.055.105-.117.167-.163.122-.089.251-.169.377-.252l.193.214c-.045.05-.096.097-.133.152a4.927 4.927 0 00-.247.39c-.089.163-.157.337-.248.498-.146.257-.267.542-.467.752-.3.313-.628.621-.998.844-.84.505-1.7.986-2.58 1.42-.62.306-.726.824-.708 1.485.006.212.095.23.298.128.14-.07.267-.175.413-.226a9.481 9.481 0 001.34-.59 4.854 4.854 0 001.57-1.298c.191-.245.37-.513.607-.71a3.319 3.319 0 001.026-1.444c.122-.334.222-.7.605-.867.107.055.13.14.123.255-.059.93-.257 1.823-.728 2.645-.22.383-.5.718-.842 1.003-.064.054-.12.116-.18.174l-.542.461c-.272.236-.554.461-.813.71-.33.317-.642.654-.962.982-.081.032-.167.057-.244.098-.472.252-.948.475-1.51.433-.24-.017-.296.036-.377.264a1.777 1.777 0 00-.062.207c-.148.67-.288 1.341-.44 2.01a11.35 11.35 0 01-.728 2.19 6.42 6.42 0 01-.435.786c-.088.137-.237.236-.336.369-.169.224-.307.471-.48.69a3.725 3.725 0 00-.631 1.175c-.045.135-.075.288.041.376.115.086.251.003.362-.075.491-.34.895-.769 1.271-1.224.484-.584.97-1.168 1.456-1.751.017-.02.054-.025.082-.037-.043.098-.079.2-.132.294-.088.157-.187.308-.281.462v-.01l-.035.04z"/><path class="st6" d="M16.207 29.094c-.069.141-.164.276-.201.425-.182.739-.07 1.452.234 2.142.047.107.097.213.146.32l-.724-.272c-.095-.17-.177-.35-.288-.508-.58-.828-1.185-1.64-1.749-2.478a2.962 2.962 0 01-.506-1.588c.038-.19.08-.378.114-.569.069-.402.154-.803.142-1.216-.005-.157-.014-.317.005-.472.031-.265.068-.531.13-.79.084-.358-.06-.647-.247-.929-.014-.021-.053-.027-.08-.04-.053-.14-.111-.279-.158-.42-.194-.593-.59-1.032-1.097-1.384-.318-.22-.652-.419-.97-.64-.544-.378-1.103-.743-1.617-1.16a6.41 6.41 0 01-1.003-1.027c-.293-.376-.468-.827-.6-1.289-.066-.233-.088-.455.025-.677.085.123.157.259.258.368.603.646 1.32 1.144 2.111 1.543.49.248.977.502 1.465.753-.032.351.041.671.259.962.297.397.768.684 1.327.48.01.04.024.078.032.118l.28 1.443.31 1.623.174.894c-.015-.003-.033-.002-.046-.009-.318-.161-.424-.095-.434.26-.005.164-.032.327-.043.49-.027.392-.06.784.048 1.169.084.3.32.439.584.326.137-.06.245-.181.367-.275.085.204.163.41.256.61.179.39.394.76.694 1.075l.385.4.417.342z"/><path class="st3" d="M8.513 13.871c.064-.031.138-.052.19-.096.222-.189.467-.362.58-.643.132-.33.43-.476.718-.623.198-.101.42-.158.632-.237.287-.106.321-.174.142-.42-.134-.183-.11-.34-.017-.517.156-.298.31-.597.46-.898.044-.091.045-.211.106-.286.104-.126.233-.235.364-.335.166-.127.346-.236.516-.357.138-.098.299-.073.319.086.049.378.343.59.54.87.13.186.21.405.313.61.112.222.21.453.338.667.322.54.669 1.064.981 1.608.152.264.226.57.378.833.13.225.297.46.612.449.11-.004.219-.077.359-.13.014.024.06.07.07.123.056.266.104.533.151.8.034.19.062.38.092.57l.053-.001c.025-.133.055-.264.072-.397a4.78 4.78 0 00.037-.447c.014-.357.03-.713.03-1.07.002-.258-.028-.516-.027-.774.008-3.406.02-6.813.028-10.22.001-.314-.03-.63-.028-.945.003-.538.02-1.076.03-1.614l.007-.309.125.312c-.012.037-.034.075-.035.112-.013.43-.031.859-.03 1.288 0 .45.026.9.027 1.35.002 2.742.001 5.484.001 8.226 0 .988.003 1.976 0 2.964-.002.358-.024.716-.03 1.074-.013.693-.022 1.387-.032 2.08l-.224.003-.127-.028c-.021-.35-.04-.7-.064-1.05-.018-.267-.032-.535-.07-.8-.017-.127-.08-.219-.25-.25a2.344 2.344 0 01-.644-.242c-.357-.188-.564-.517-.761-.851a3.654 3.654 0 00-.384-.565c-.145-.166-.352-.314-.576-.28-.3.046-.558-.024-.826-.125a10.982 10.982 0 00-.927-.312c-.414-.115-.838-.196-1.252-.311-.43-.12-.792.023-1.046.381a4.53 4.53 0 01-.94.957c-.158.122-.304.246-.244.49.042.166-.037.325-.158.453-.095.102-.2.197-.286.305-.179.223-.35.452-.522.68-.261.349-.427.73-.46 1.168-.043.562.177 1.04.504 1.467.29.378.639.713.955 1.073.307.35.693.577 1.12.758.259.11.504.256.742.406.296.187.582.392.867.595.217.155.447.299.633.485.192.192.338.428.503.646.01.012.01.029.016.043.08.182.153.368.243.546.07.138.173.26.237.401.144.32.078.645-.003.967-.04.16-.109.317-.12.479-.027.374-.033.75-.035 1.124-.001.258.008.517.033.774.024.24.06.48.116.715.128.528.36 1.014.663 1.468.073.11.115.238.17.357-.08-.1-.157-.204-.246-.297-.055-.057-.13-.097-.197-.144a83.006 83.006 0 01-.035-.053c-.034-.062-.065-.126-.105-.186-.189-.286-.401-.56-.474-.904.005-.04.019-.082.014-.122-.053-.496-.118-.992-.16-1.49-.029-.329-.004-.663-.043-.99-.03-.254.015-.476.116-.704.203-.458.176-.886-.184-1.277-.197-.213-.366-.452-.539-.685-.043-.06-.098-.17-.072-.208.076-.114.002-.178-.056-.24-.1-.104-.21-.203-.328-.289-.244-.18-.494-.352-.744-.523-.337-.23-.67-.465-1.017-.68-.199-.123-.445-.18-.627-.321-.276-.213-.52-.465-.768-.711a5.417 5.417 0 01-1.088-1.493c-.247-.512-.312-1.03-.065-1.537.212-.435.491-.841.76-1.248.107-.161.268-.288.402-.433.127-.135.122-.304-.009-.44l.51-.655zm3.34-3.673c-.177-.014-.305.08-.39.228a9.85 9.85 0 00-.382.727c-.053.114-.088.287.051.349.285.127.585.225.886.31.169.047.352.05.53.058.058.002.143-.026.172-.068.04-.06.074-.16.05-.217-.073-.168-.182-.321-.266-.486a9.469 9.469 0 01-.282-.604c-.072-.175-.208-.297-.37-.297z"/><path class="st7" d="M13.12 27.135c.015.576.187 1.115.505 1.588.564.839 1.168 1.65 1.749 2.478.111.159.193.338.288.508-.222-.083-.47-.114-.638-.304-.023-.061-.034-.13-.07-.183-.185-.27-.38-.535-.565-.805-.441-.649-.923-1.273-1.274-1.978a3.79 3.79 0 01-.402-1.706c0-.52.055-1.04.091-1.56.011-.159.035-.317.061-.474.027-.157.074-.312.093-.47.049-.39-.067-.744-.25-1.087-.058-.11-.074-.243-.095-.367-.017-.101.01-.215-.024-.307a1.65 1.65 0 00-.567-.751c-.47-.349-.963-.667-1.448-.997-.58-.394-1.18-.763-1.734-1.188-.367-.28-.685-.628-.995-.97a4.25 4.25 0 01-.502-.731c-.129-.223-.24-.459-.233-.732.006-.255.088-.48.204-.706.228-.439.5-.846.832-1.215.133-.147.248-.301.284-.508a.725.725 0 01.147-.353 27.37 27.37 0 011.078-1.135.463.463 0 01.496-.124c.243.083.49.158.74.22.351.087.709.151 1.06.241.367.095.724.23 1.094.308.446.093.768.338 1.035.68.318.405.63.81 1.072 1.107.2.134.416.316.505.526.19.45.303.93.448 1.4l.002.012-1.716-.591c-.096-.15-.203-.295-.288-.452-.153-.282-.283-.577-.443-.855-.194-.335-.391-.67-.715-.913-.266-.199-.552-.343-.887-.37-.263-.02-.527-.011-.79-.036-.212-.02-.422-.078-.634-.105-.16-.02-.325-.04-.482-.022-.274.032-.453.217-.619.418-.272.332-.554.657-.831.985l-.448.11c-.108.04-.221.069-.322.121-.23.12-.294.29-.217.532.015.05.032.099.048.148-.113.222-.09.444-.024.677.131.462.306.913.6 1.29a6.41 6.41 0 001.002 1.026c.514.417 1.073.782 1.618 1.16.317.221.651.42.969.64.507.352.903.791 1.097 1.384.047.141.105.28.158.42.1.351.121.7.043 1.065a8.158 8.158 0 00-.135 1.115c-.027.382-.034.767-.032 1.151.002.228.04.457.06.685z"/><path class="st8" d="M8.513 13.871l-.51.655c-.02.016-.045.028-.06.048-.237.307-.467.62-.712.92-.17.208-.361.397-.543.595l-.155-.596c.049-.03.1-.057.146-.091.376-.277.588-.67.78-1.074.17-.36.296-.745.495-1.089.243-.42.489-.834.617-1.304.182-.668.616-1.077 1.29-1.278.232-.069.449-.207.655-.34.443-.285.665-.71.644-1.22-.014-.356-.12-.708-.178-1.063-.032-.187-.067-.374-.072-.563-.007-.24.157-.408.315-.568.423-.426.833-.863 1.15-1.375.24-.39.417-.8.395-1.27l.731-.246c-.004.057 0 .116-.015.169a14.59 14.59 0 01-.948 2.312c-.237.471-.45.96-.62 1.457-.156.457-.243.936-.354 1.406-.017.07-.003.146-.003.219-.188.277-.375.555-.566.83-.363.527-.72 1.057-1.094 1.576-.455.635-.924 1.26-1.388 1.89z"/><path class="st9" d="M16.105 17.54c-.145-.47-.257-.95-.448-1.4-.089-.21-.304-.392-.505-.526-.442-.296-.754-.702-1.072-1.107-.267-.342-.589-.587-1.035-.68-.37-.077-.727-.213-1.094-.308-.351-.09-.709-.154-1.06-.241a9.394 9.394 0 01-.74-.22.463.463 0 00-.496.124c-.37.368-.73.747-1.078 1.135a.725.725 0 00-.147.353c-.036.207-.15.36-.284.508a5.737 5.737 0 00-.832 1.215c-.116.225-.198.45-.204.706-.007.273.104.509.233.732.147.255.305.512.502.73.31.343.628.69.995.971.555.425 1.154.794 1.734 1.188.485.33.978.648 1.448.997.257.19.455.448.567.75.035.093.007.207.024.308.021.124.037.258.095.367.183.343.299.697.25 1.088-.02.157-.066.312-.093.469-.026.157-.05.315-.06.474-.037.52-.092 1.04-.092 1.56 0 .593.133 1.166.402 1.706.351.705.833 1.33 1.274 1.978.185.27.38.534.565.805.036.052.047.122.07.183-.107-.099-.228-.186-.317-.298-.4-.5-.793-1.007-1.187-1.512-.021-.028-.034-.062-.052-.094-.055-.12-.097-.248-.17-.357a4.586 4.586 0 01-.663-1.468 5.205 5.205 0 01-.116-.715 7.578 7.578 0 01-.033-.774c.002-.375.008-.75.035-1.124.011-.162.08-.32.12-.479.08-.322.147-.647.003-.967-.064-.14-.168-.263-.237-.401-.09-.178-.163-.364-.243-.546-.006-.014-.007-.031-.016-.043-.165-.218-.311-.454-.503-.646-.186-.186-.416-.33-.633-.485-.285-.203-.57-.408-.867-.595a5.25 5.25 0 00-.742-.406c-.427-.18-.813-.409-1.12-.758-.316-.36-.665-.695-.955-1.073-.327-.427-.547-.905-.504-1.467.033-.438.199-.82.46-1.167.172-.229.343-.458.522-.68.087-.109.19-.204.286-.306.121-.128.2-.287.158-.453-.06-.244.086-.368.244-.49a4.53 4.53 0 00.94-.957c.254-.358.615-.5 1.046-.381.414.115.838.196 1.252.311.314.087.622.197.927.312.268.1.526.17.826.125.224-.034.43.114.576.28.15.17.269.369.384.565.197.334.404.663.76.851.202.107.422.199.644.241.17.032.234.124.252.25.037.266.05.534.069.801.024.35.043.7.064 1.05l-.13-.01z"/><path class="st4" d="M24.335 20.898l.542-.461-.058.38c-.037.251.04.483.128.712-.022.02-.053.037-.066.063-.19.382-.37.764-.322 1.21.022.198.056.406.02.599a7.668 7.668 0 01-.284 1.058.9.9 0 00-.006.561.42.42 0 00.332.315c.332.072.622-.048.92-.145.229-.074.455-.158.682-.238l.137.354-.407.221c-.227.057-.454.116-.682.17-.193.046-.386.093-.581.129-.252.045-.507.073-.758.121-.346.067-.602.29-.853.51-.361.316-.723.613-1.254.597-.114-.004-.12-.037-.125-.118-.005-.095-.016-.19-.024-.284-.007-.1-.037-.206-.016-.3.04-.186.137-.362.16-.549.052-.403.259-.736.46-1.072.125-.211.246-.43.493-.542.034-.015.044-.078.07-.116.097-.146.196-.291.327-.484l.105.184c.27-.13.34-.322.227-.538-.018-.035-.001-.099.02-.14.06-.12.194-.242.183-.352-.02-.196.08-.334.14-.492.062-.157.128-.314.206-.464.146-.281.351-.543.284-.889z"/><path class="st10" d="M24.335 20.898c.067.346-.138.608-.284.889a4.67 4.67 0 00-.205.464c-.062.158-.162.296-.141.492.011.11-.123.232-.183.352-.021.041-.038.105-.02.14.113.216.042.409-.227.538l-.105-.184c-.13.193-.23.338-.327.484-.026.038-.036.1-.07.116-.247.111-.368.33-.494.542-.2.336-.407.67-.458 1.072-.024.187-.12.363-.16.549-.022.094.008.2.015.3.008.095.02.19.024.284.004.081.01.114.125.118.53.016.893-.281 1.254-.598.251-.22.507-.442.853-.509.251-.048.506-.076.758-.121.195-.036.388-.083.58-.129.229-.054.456-.113.683-.17-1.277.736-2.554 1.472-3.831 2.206-.621.357-1.244.71-1.866 1.063-.044.025-.093.04-.14.06.094-.153.193-.304.281-.46.053-.094.089-.197.132-.295.02-.047.046-.093.06-.142.255-.939.518-1.876.759-2.818.127-.496.173-1.017.454-1.462.236-.374.504-.727.758-1.09.32-.327.631-.664.962-.981.259-.249.541-.474.813-.71z"/><path d="M6.688 16.089c.182-.198.373-.387.543-.594.245-.301.475-.614.712-.921.015-.02.04-.032.06-.048.131.136.136.305.009.44-.134.145-.295.272-.401.433-.27.407-.549.813-.761 1.248-.247.507-.182 1.025.065 1.537a5.417 5.417 0 001.088 1.493c.247.246.492.498.768.71.182.141.428.199.627.322.347.215.68.45 1.017.68.25.171.5.343.744.523.118.086.227.185.328.29.058.06.132.125.056.239-.026.039.029.149.072.208.173.233.342.472.539.685.36.391.387.819.184 1.277-.1.228-.146.45-.116.704.039.327.014.661.043.99.042.498.107.994.16 1.49.005.04-.009.081-.014.122l-.21-.602-.087-.344-.525-2.11c-.073-.592-.302-1.125-.645-1.614-.6-.855-1.349-1.573-2.147-2.246l-.664-.535c-.037-.049-.066-.107-.113-.144-.789-.63-1.218-1.471-1.441-2.42-.097-.41-.13-.836-.195-1.254a.34.34 0 01.123-.33c.072-.064.122-.152.181-.229z" fill="#ed9930"/><path class="st6" d="M26.504 16.36c-.383.167-.483.533-.605.867a3.319 3.319 0 01-1.026 1.444c-.237.197-.416.465-.607.71a4.854 4.854 0 01-1.57 1.297 9.481 9.481 0 01-1.34.59c-.146.052-.272.157-.413.227-.203.102-.292.084-.298-.128-.018-.66.089-1.179.708-1.485.88-.434 1.74-.915 2.58-1.42.37-.223.699-.53.998-.844.2-.21.32-.495.467-.752.091-.16.16-.335.248-.498.074-.134.16-.262.247-.39.037-.055.088-.101.133-.152l.284.265.194.27z"/><path class="st12" d="M25.833 15.612c-.126.083-.255.163-.377.252-.062.046-.112.108-.167.163-.132-.087-.256-.19-.398-.257-.144-.067-.306-.1-.46-.147-.02-.05-.028-.115-.065-.148-.268-.237-.448-.53-.599-.848-.224-.473-.472-.936-.696-1.41a6.32 6.32 0 01-.283-.722c-.077-.235-.114-.483-.199-.715-.151-.416-.39-.776-.762-1.043-.319-.23-.642-.454-.941-.706-.382-.322-.556-.787-.787-1.209-.228-.418-.414-.858-.63-1.282-.242-.471-.484-.944-.752-1.401-.217-.37-.468-.722-.715-1.074-.143-.202-.162-.194-.391-.058-.042.025-.119.043-.151.023-.042-.027-.064-.094-.08-.148-.015-.054-.012-.112-.02-.168-.046-.358-.09-.715-.142-1.072-.032-.224-.038-.46-.12-.667-.17-.433-.261-.87-.23-1.334.003-.053-.02-.107-.03-.16v-.219l.107-.098.856 1.975c0 .075-.015.152.002.223.133.553.395 1.057.653 1.56.319.623.666 1.233.988 1.856.364.702.715 1.41 1.067 2.118.268.54.57 1.052 1.103 1.386.162.102.33.195.496.291l.662.947c.02.029.047.054.071.081l.13.215c.091.273.165.553.278.817.166.386.351.765.544 1.138.196.377.388.759.626 1.11.168.249.402.47.758.419.115-.017.223-.079.335-.12l.32.432z"/><path class="st8" d="M7.952 21.807c.063-.174.128-.346.186-.52.028-.083.042-.17.062-.255.03.018.069.03.092.054.246.27.492.538.734.81.236.265.478.524.697.801.39.494.768.997 1.142 1.502.29.39.538.807.656 1.28.072.29.123.586.166.88.02.145.02.298-.004.442-.028.178-.172.265-.35.208a6.643 6.643 0 01-.689-.266c-.44-.196-.875-.405-1.316-.602a40.204 40.204 0 00-1.185-.508c-.467-.19-.938-.37-1.407-.553l.172-.465c.052.03.1.072.157.09.458.14.919.27 1.34.502.296.163.597.31.937.357.302.04.605.07.906.112.33.048.494-.08.485-.404a.83.83 0 00-.07-.298c-.13-.298-.338-.543-.558-.783-.27-.295-.548-.592-.76-.926-.268-.42-.547-.825-.927-1.151-.14-.12-.31-.206-.466-.307z"/><path class="st12" d="M6.44 15.118l-.148-.593c.031-.017.067-.03.093-.052.207-.176.278-.421.345-.667.067-.243.109-.495.302-.688.132-.133.248-.281.373-.42.172-.19.299-.4.343-.653.074-.42.141-.843.226-1.261.055-.271.164-.53.45-.636.193-.072.405-.1.61-.135.249-.041.504-.048.748-.104.532-.125.771-.538.57-1.038-.122-.304-.33-.574-.497-.86-.143-.246-.305-.49-.157-.793.13-.268.333-.475.561-.664.323-.266.664-.515.957-.808.297-.296.547-.637.503-1.095l.6-.224c-.021.162-.026.33-.068.487-.11.412-.368.743-.667 1.036-.313.307-.655.584-.982.876-.297.265-.381.583-.228.95.13.312.278.616.392.932.22.61.086 1.146-.562 1.459-.291.14-.626.2-.947.277-.355.085-.659.23-.802.583-.087.215-.184.433-.224.659a3.355 3.355 0 01-.672 1.486.946.946 0 00-.13.229c-.141.36-.259.731-.42 1.083-.12.26-.274.514-.569.634z"/><path class="st13" d="M7.952 21.807c.156.101.326.187.466.307.38.326.659.73.926 1.15.213.335.491.632.761.927.22.24.429.485.558.783a.83.83 0 01.07.298c.01.324-.154.452-.485.404-.301-.043-.604-.071-.906-.112-.34-.047-.641-.194-.937-.357-.421-.232-.882-.362-1.34-.502-.056-.018-.105-.06-.157-.09l.197-.534c.107.042.21.099.322.124.378.088.758.166 1.138.244.13.026.344-.144.317-.255-.079-.321-.137-.65-.258-.956-.159-.403-.47-.678-.903-.805l.231-.626zM6.44 15.118c.295-.12.45-.374.569-.634.161-.352.279-.723.42-1.083a.946.946 0 01.13-.23c.342-.444.575-.93.672-1.485.04-.226.137-.444.224-.659.143-.353.447-.498.802-.583.32-.077.656-.137.947-.277.648-.313.781-.85.562-1.459-.114-.316-.263-.62-.392-.931-.153-.368-.07-.686.228-.95.327-.293.67-.57.982-.877.299-.293.557-.624.667-1.036.042-.158.047-.325.069-.487l.45-.169c.022.47-.155.88-.396 1.27-.316.512-.726.949-1.15 1.375-.157.16-.32.328-.314.568.005.189.04.376.072.563.059.355.164.707.178 1.063.02.51-.2.935-.644 1.22-.206.133-.423.271-.655.34-.674.2-1.108.61-1.29 1.278-.128.47-.374.884-.617 1.304-.199.344-.324.729-.495 1.09-.192.403-.404.796-.78 1.073-.046.034-.097.06-.146.091l-.093-.375z"/><path class="st14" d="M11.561 9.575c0-.073-.014-.15.003-.219.111-.47.198-.95.354-1.406.17-.498.383-.986.62-1.457a14.59 14.59 0 00.948-2.312c.016-.053.01-.112.015-.169l1.465-.42c-.135.291-.263.586-.406.874a40.576 40.576 0 01-2.509 4.367l-.49.742zM6.736 25.08c.469.184.94.363 1.407.553.398.163.793.333 1.185.508.44.197.875.406 1.316.602.225.1.454.192.689.266.178.057.322-.03.35-.208a1.48 1.48 0 00.004-.441 9.005 9.005 0 00-.166-.88c-.118-.474-.367-.89-.656-1.281a62.321 62.321 0 00-1.142-1.502c-.219-.277-.461-.536-.697-.8a73.51 73.51 0 00-.734-.81c-.023-.026-.061-.037-.092-.055l-.067-.566.664.535c.042.261.246.426.398.618.232.293.509.553.726.855.489.677.952 1.372 1.427 2.06.077.11.16.218.24.327l.526 2.11.087.344c-.066.065-.124.14-.199.193-.172.123-.367.066-.53-.001a10.55 10.55 0 01-.919-.45c-.389-.207-.764-.44-1.158-.636-.315-.156-.654-.264-.975-.408-.38-.17-.749-.362-1.129-.53-.2-.088-.414-.145-.622-.216l.067-.187z"/><path class="st15" d="M16.838 1.262v.218c-.005.354-.075.722-.002 1.059.172.787.243 1.58.252 2.379.008.652-.018 1.304-.027 1.956-.003.233.005.467-.002.7-.007.227-.022.453-.043.68-.032.358-.025.71.154 1.038.13.238.33.251.494.037.123-.16.254-.314.382-.47l.185.127c-.03.083-.054.174-.096.255a.873.873 0 00-.037.718c.087.25.294.454.297.737-.054-.038-.116-.069-.16-.116-.184-.193-.357-.395-.542-.585-.209-.215-.216-.216-.448-.042-.218.164-.398.358-.408.65-.011.321-.026.642-.03.963-.005.456-.012.913.003 1.369.01.313.064.624.084.937.021.335.043.672.032 1.007-.012.416-.07.831-.084 1.248-.01.33.018.66.027.991.004.143 0 .285 0 .427l-.19.026c.01-.066.029-.131.03-.198.023-.85.053-1.702.062-2.553.006-.533-.018-1.066-.029-1.599-.004-.224-.011-.45-.01-.674.001-.651-.005-1.303.017-1.953.007-.217.097-.43.133-.647.024-.14.034-.285.024-.425-.025-.344-.084-.686-.096-1.03-.016-.515-.008-1.032-.003-1.547.003-.305.03-.61.029-.915-.006-.889-.019-1.777-.032-2.666-.002-.123-.03-.246-.037-.369-.021-.338-.04-.676-.054-1.014a4.398 4.398 0 01.002-.46c.016-.264.043-.527.065-.791l.095.24c-.061.091-.111.184-.037.292z"/><path class="st4" d="M6.669 25.267c.208.071.422.128.622.216.38.168.75.36 1.129.53.321.144.66.252.975.408.394.196.77.429 1.158.636.301.16.604.32.919.45.163.067.358.124.53 0 .075-.052.133-.127.199-.192l.21.602c.073.344.285.618.474.904.04.06.07.124.105.186-.05-.02-.104-.033-.15-.06l-6.1-3.511c-.066-.039-.16-.067-.072-.169z"/><path class="st5" d="M11.72 4.651c.043.458-.207.799-.504 1.095-.293.293-.634.542-.957.808-.228.189-.431.396-.561.664-.148.303.014.547.157.793.167.286.375.556.497.86.201.5-.038.913-.57 1.038-.244.056-.5.063-.748.104-.205.034-.417.063-.61.135-.286.107-.395.365-.45.636-.085.418-.152.84-.226 1.261a1.303 1.303 0 01-.343.653c-.125.139-.241.287-.373.42-.193.193-.235.445-.302.688-.067.246-.138.49-.345.667-.026.023-.062.035-.093.052l-.087-.524c.038-.053.096-.1.108-.158.083-.39.276-.699.608-.942.342-.252.63-.557.677-1.007.043-.409.073-.82.12-1.229.03-.256.006-.557.302-.685.198-.085.422-.12.639-.153.336-.05.68-.06 1.014-.125.426-.084.617-.403.442-.785-.13-.286-.332-.548-.535-.794-.383-.462-.364-.73-.034-1.117.28-.33.646-.588.964-.888a10.4 10.4 0 00.735-.741.69.69 0 00.158-.594l.316-.132z"/><path class="st15" d="M11.403 4.783a.69.69 0 01-.158.594 10.4 10.4 0 01-.735.741c-.318.3-.684.558-.964.888-.33.387-.349.655.034 1.117.203.246.405.508.535.794.175.382-.016.701-.442.785-.333.066-.678.074-1.014.125-.217.033-.441.068-.639.153-.296.128-.272.429-.301.685-.048.41-.078.82-.121 1.23-.047.449-.335.754-.677 1.006a1.504 1.504 0 00-.608.942c-.012.058-.07.105-.108.158l-.136-.97c.101-.024.21-.032.302-.077.202-.098.4-.21.593-.325.304-.184.433-.476.462-.807a8.93 8.93 0 00.032-.939 3.395 3.395 0 00-.074-.611c-.054-.266.026-.456.29-.515.32-.072.65-.104.977-.15.326-.047.664-.023.974-.158.254-.111.326-.252.225-.51a1.715 1.715 0 00-.273-.446c-.152-.185-.327-.351-.496-.522-.166-.167-.157-.38-.063-.546a2.96 2.96 0 01.52-.67c.408-.391.855-.746 1.269-1.133.2-.187.335-.426.31-.718l.286-.121z"/><path class="st10" d="M19.603 4.067c-.018.233-.017.47-.06.698-.041.225.009.436.072.636.17.534.344 1.07.566 1.585.254.588.555 1.157.846 1.73.125.244.28.474.413.714.046.084.068.181.1.272-.023-.027-.05-.05-.07-.08-.193-.291-.384-.583-.575-.874a42.278 42.278 0 01-2.491-4.36c-.13-.26-.24-.53-.359-.794l1.558.473z"/><path class="st12" d="M7.721 22.433c.432.127.744.402.903.805.121.305.18.635.258.956.027.111-.188.281-.317.255-.38-.078-.76-.156-1.138-.244-.111-.025-.215-.082-.322-.124l.616-1.648z"/><path class="st7" d="M16.78.73c-.022.264-.049.527-.065.792-.01.152-.008.306-.002.459.014.338.033.676.054 1.014.007.123.035.246.037.369.013.889.026 1.777.032 2.666.001.305-.026.61-.029.915-.005.515-.013 1.032.003 1.547.012.344.07.686.096 1.03.01.14 0 .285-.024.425-.036.217-.126.43-.133.647-.022.65-.016 1.302-.018 1.953 0 .225.007.45.011.674.01.533.035 1.066.03 1.599-.01.851-.04 1.702-.062 2.553-.002.067-.02.132-.03.198l-.095.004c.01-.694.019-1.388.032-2.081.006-.358.028-.716.03-1.074.003-.988 0-1.976 0-2.964 0-2.742.001-5.484-.001-8.226 0-.45-.028-.9-.028-1.35 0-.43.018-.858.03-1.288.002-.037.024-.075.036-.112l.096.25z"/><path class="st13" d="M18.045 3.594c.12.265.23.533.359.793a42.278 42.278 0 002.491 4.36c.191.292.382.584.575.875.02.03.047.053.07.08l.478.73.092.141c-.165-.096-.334-.189-.496-.29-.533-.335-.835-.847-1.103-1.387-.352-.708-.703-1.416-1.067-2.118-.322-.623-.669-1.233-.988-1.857-.258-.502-.52-1.006-.653-1.56-.017-.07-.002-.147-.002-.222l.244.455z"/><path class="st8" d="M25.148 22.055l.964 2.59-.118.044c-.25.096-.494.21-.751.282-.247.069-.536-.025-.487-.377.037-.259.123-.51.171-.767.047-.252.088-.507.106-.762.012-.19-.035-.383-.02-.571.01-.15-.006-.322.135-.439z"/><path class="st14" d="M25.148 22.055c-.14.117-.124.288-.136.439-.014.188.033.382.02.57a6.539 6.539 0 01-.105.763c-.048.257-.134.508-.17.767-.05.352.239.446.486.377.257-.072.501-.186.751-.282l.118-.045.111.308c-.227.08-.453.164-.682.238-.298.097-.588.217-.92.145a.42.42 0 01-.332-.315.9.9 0 01.006-.56 7.78 7.78 0 00.284-1.06c.036-.192.002-.4-.02-.599-.049-.445.132-.827.322-1.209.013-.026.044-.042.066-.063l.201.526z"/><path class="st10" d="M25.833 15.612l-.32-.432-.126-.188c.046.008.1.002.137.024.311.177.63.175.956.05.033-.012.073-.008.11-.011l-.28 1.036-.284-.265-.193-.214z"/><path class="st5" d="M16.838 1.262c-.074-.108-.024-.2.037-.292l.07.194-.107.098z"/><path class="st4" d="M12.988 29.004l.037.056-.037-.056z"/><path class="st3" d="M16.052 11.279c-.106-.252-.207-.506-.32-.755a1.614 1.614 0 00-.214-.377c-.328-.39-.662-.777-1.01-1.15-.114-.121-.278-.2-.421-.294a.905.905 0 01-.434-.7c-.012-.12-.06-.24-.105-.355-.12-.312 0-.57.17-.825.21-.315.43-.627.604-.961.139-.265.323-.49.506-.72.109-.138.206-.286.284-.442.159-.32.31-.643.448-.972.072-.17.099-.36.167-.532.091-.228.2-.449.309-.67.016-.033.083-.078.101-.069.04.02.089.069.093.11.02.184.035.37.034.555-.005.443-.03.885-.028 1.327.005 1.145.022 2.29.028 3.436.002.311-.028.623-.027.934 0 .409.034.818.024 1.226-.009.36-.057.718-.093 1.077-.006.055-.043.107-.065.16-.017 0-.034-.002-.05-.003zm.087-5.153h.042c-.014-.269-.014-.539-.046-.805-.033-.264-.1-.524-.15-.787-.019-.098-.09-.113-.167-.088a.42.42 0 00-.187.105c-.124.147-.224.312-.35.457-.164.189-.368.348-.511.55-.17.24-.29.513-.44.768-.1.17-.204.337-.323.494-.21.275-.232.55-.05.845.048.079.087.164.126.248.091.196.214.361.392.496.206.156.456.307.569.52.215.406.549.689.865.997.092.09.15.059.173-.054.024-.116.053-.233.054-.35.005-.661.003-1.323.003-1.984V6.126zm-.091 7.902c-.413-.696-.504-1.373.035-2.03.2.182.19 1.707-.035 2.03z"/><path class="st14" d="M20.519 5.335c.066.026.17.072.276.107.46.152.9.349 1.306.61.586.375 1.166.759 1.755 1.13.199.125.423.21.624.332.21.127.432.25.6.42.175.179.33.397.423.625.125.307.175.642.27.962.074.25.159.498.253.742.166.425.149.833-.091 1.228-.107.175-.461.326-.662.27a41.94 41.94 0 01-1.12-.322c-.31-.096-.626-.182-.922-.312-.37-.161-.654-.436-.901-.751-.584-.746-1.051-1.56-1.462-2.405-.315-.65-.59-1.314-.711-2.028a1.163 1.163 0 01.02-.397c.029-.149.147-.204.342-.21zm4.28 5.58c.449-.009.61-.209.579-.494a9.276 9.276 0 00-.189-1.123c-.06-.252-.15-.51-.285-.73-.273-.446-.722-.712-1.16-.981-.294-.18-.589-.362-.887-.537-.388-.227-.773-.461-1.174-.665a1.3 1.3 0 00-.533-.122c-.265-.009-.41.206-.352.537.103.586.365 1.12.622 1.652.253.523.546 1.025.95 1.458.255.273.517.54.871.677.237.092.495.133.746.184.288.059.579.103.811.144z"/><path class="st13" d="M25.387 14.992l.127.188c-.112.041-.22.103-.335.12-.356.05-.59-.17-.758-.419-.238-.351-.43-.733-.626-1.11a17.418 17.418 0 01-.544-1.138c-.113-.264-.187-.544-.278-.817.302.407.602.817.907 1.222.19.251.39.496.584.744.196.267.389.537.588.802.106.14.223.272.335.408z"/><path class="st10" d="M24.464 13.782c-.195-.248-.394-.493-.584-.744-.305-.405-.605-.815-.907-1.222l-.13-.215c.055.004.118-.007.164.016.278.134.55.28.827.413.296.142.697.549.589.972-.062.241.023.519.041.78z"/><path class="st14" d="M25.07 13.807c.018-.158.067-.356.271-.416.313-.092.36-.14.593.1a.89.89 0 01.246.85c-.06.28-.224.367-.502.283a.889.889 0 01-.608-.817z"/><path class="st12" d="M25.314 16.328c.01.062.04.13.023.184-.036.106-.096.205-.15.305-.136.25-.236.532-.42.742a4.388 4.388 0 01-.862.764c-.51.337-1.05.632-1.59.926-.404.22-.829.405-1.24.615-.307.158-.465.43-.515.757-.083.544-.144 1.09-.23 1.634-.045.284-.126.563-.186.845-.191.892-.37 1.786-.574 2.675a8.862 8.862 0 01-.686 1.894c-.122.25-.21.536-.392.737-.41.452-.708.976-1.055 1.467-.18.254-.313.539-.472.807-.047.08-.107.153-.163.228-.09.12-.205.112-.287-.018-.334-.526-.371-1.063-.062-1.613.005-.008.004-.02.005-.03.039-.011.081-.016.115-.034.81-.444 1.34-1.127 1.726-1.934.355-.744.503-1.546.664-2.342.331-1.644.644-3.292.962-4.938.02-.102.071-.157.165-.202.804-.385 1.61-.766 2.404-1.166.696-.352 1.386-.717 1.97-1.241.344-.308.684-.618.85-1.062z"/><path class="st6" d="M22.56 22.59c-.254.362-.522.715-.758 1.089-.28.445-.327.966-.454 1.462-.241.942-.504 1.88-.76 2.818-.013.05-.039.095-.059.142-.028.012-.065.016-.082.037a549.07 549.07 0 00-1.456 1.751c-.376.455-.78.883-1.27 1.224-.112.078-.248.161-.363.075-.116-.088-.086-.24-.041-.376.14-.428.347-.818.63-1.174.174-.22.312-.467.48-.691.1-.133.25-.232.337-.37a6.42 6.42 0 00.435-.784c.322-.705.555-1.44.727-2.192.153-.668.293-1.34.44-2.009.016-.07.04-.14.063-.207.08-.228.137-.281.377-.264.562.042 1.038-.181 1.51-.433.077-.041.163-.066.244-.098z"/><path class="st2" d="M25.314 16.328c-.166.444-.506.754-.85 1.062-.584.524-1.274.89-1.97 1.24-.795.401-1.6.782-2.404 1.167-.094.045-.145.1-.165.202-.318 1.646-.63 3.294-.962 4.938-.16.796-.31 1.598-.664 2.342-.385.807-.917 1.49-1.726 1.934-.034.018-.076.023-.115.034a.094.094 0 00-.004-.026l.064-.127.039-.055.214-.225.014-.05.24-.232.105-.145.059-.069.161-.213.16-.22.123-.19.132-.211.193-.284.023-.158.038-.214c.064-.138.148-.27.187-.413.166-.608.324-1.217.474-1.829.057-.234.136-.48.112-.713-.05-.47 0-.932.096-1.383.142-.67.303-1.335.391-2.015.013-.1-.023-.145-.12-.158-.203-.028-.274.018-.346.207-.03.079-.01.203-.155.196.025-.158.064-.314.07-.473.012-.285.097-.495.433-.51.02-.002.038-.015.057-.023.134.079.267.18.435.11.31-.132.621-.264.925-.409.37-.176.732-.366 1.097-.55.07-.036.142-.07.209-.112.426-.267.852-.536 1.278-.805a4.82 4.82 0 00.88-.723c-.053-.016-.1-.025-.133-.007-.179.096-.355.197-.53.3-.215.128-.422.271-.644.385-.131.066-.285.089-.429.13.345-.234.692-.466 1.034-.703a.526.526 0 00.21-.584c.14-.09.166-.211.058-.332-.077-.084-.17-.154-.257-.228-.087-.073-.132-.14-.035-.245.044-.048.05-.128.072-.194.34-.11.684-.17 1.043-.124.154.047.316.08.46.147.142.067.266.17.398.257l.025.301z"/><path class="st16" d="M15.405 28.352c-.3-.315-.515-.685-.694-1.074-.093-.2-.171-.407-.256-.61-.061-.235-.129-.468-.182-.704-.083-.366-.156-.734-.233-1.102.032-.053.085-.104.092-.16.03-.24.06-.482.064-.723a12.4 12.4 0 00-.03-.944c-.014-.21-.058-.418-.074-.628-.016-.219-.05-.445-.01-.656.04-.222.127-.451.369-.564.117.71.222 1.422.357 2.129.103.537.07 1.107.376 1.6.05.081.086.171.128.257-.14.072-.224.285-.173.467.097.35.303.642.543.912.125.141.2.151.366.052l.38.715c-.022.308-.03.618-.073.923-.022.155.008.326-.12.47-.04.046.005.17.018.257.008.054.03.106.045.158l-.091-.033-.417-.341c.088-.13.2-.25.257-.392.065-.164.094-.346.116-.522.02-.162.04-.336-.121-.455-.11-.08-.225-.073-.343-.016-.14.069-.179.19-.197.33-.028.219-.064.436-.097.654z"/><path class="st16" d="M16.298 29.127c-.016-.052-.037-.104-.045-.158-.013-.087-.058-.211-.017-.257.127-.144.097-.315.119-.47.042-.305.05-.615.073-.923l.219-.056.034.527c.11.214.24.237.421.103.154-.114.32-.22.53-.199l-.121.192-.16.219c-.055.07-.109.142-.162.213l-.06.069-.104.145c-.124.033-.232.083-.24.232l-.013.05-.215.225-.04.055-.127.096-.092-.063zm.092.063l.128-.096-.064.127-.064-.031z"/><path class="st2" d="M7.763 16.522c-.016-.05-.033-.098-.048-.148-.077-.242-.013-.413.217-.532.1-.052.214-.082.322-.122l.101.177a.631.631 0 00-.382.376l-.092.037.087.178c-.008.135.053.235.163.31.173.157.326.343.521.467.65.414 1.319.796 1.97 1.208.406.257.79.545 1.254.706.133.047.257.118.383.182.257.13.503.292.773.387.228.081.484.087.707-.067.505.13.505.13.576.63-.089.061-.22.102-.259.185a6.26 6.26 0 00-.299.779c-.097.301-.175.609-.261.914l-.281-1.443c-.008-.04-.021-.079-.032-.118-.033-.207-.06-.415-.104-.62-.014-.066-.058-.153-.113-.18-.453-.221-.912-.43-1.369-.642-.488-.251-.975-.505-1.465-.753-.791-.4-1.508-.897-2.11-1.543-.102-.11-.174-.245-.26-.368z"/><path class="st17" d="M13.496 22.189c.086-.305.164-.613.261-.914.086-.265.18-.528.3-.779.039-.083.17-.124.258-.184l.136.875c-.242.113-.328.342-.37.564-.038.211-.005.437.011.656.016.21.06.418.073.628.02.314.035.63.03.944-.002.241-.033.483-.063.723-.007.056-.06.107-.092.16l-.06-.156-.174-.894-.31-1.623z"/><path class="st5" d="M13.98 24.706l.06.156c.077.368.15.736.233 1.102.053.236.12.469.182.703-.122.094-.23.216-.367.275-.264.113-.5-.025-.584-.326-.108-.385-.075-.777-.048-1.168.01-.164.038-.327.043-.491.01-.355.116-.421.434-.26.013.007.03.006.046.009zm-2.383-5.52c.457.212.916.421 1.369.642.055.027.099.114.113.18.044.205.07.413.104.62-.559.204-1.03-.083-1.327-.48a1.336 1.336 0 01-.259-.962z"/><path class="st15" d="M13.12 27.135c-.022-.228-.059-.457-.06-.685-.003-.384.004-.769.031-1.151a8.3 8.3 0 01.135-1.115 2.156 2.156 0 00-.043-1.066c.027.014.066.02.08.041.187.282.33.571.246.929a7.227 7.227 0 00-.13.79c-.018.155-.01.315-.004.472.012.413-.073.814-.142 1.216-.033.19-.076.38-.114.569z"/><path class="st16" d="M15.405 28.352c.033-.218.069-.435.097-.654.018-.14.057-.261.197-.33.118-.057.233-.064.343.016.162.119.142.293.121.455a2.138 2.138 0 01-.116.522c-.057.142-.17.262-.257.392l-.385-.4z"/><path class="st3" d="M11.852 10.198c.162 0 .298.122.37.297.086.205.181.406.282.604.084.165.193.318.266.486.024.057-.01.158-.05.217-.03.042-.114.07-.172.068-.178-.008-.361-.011-.53-.058a6.373 6.373 0 01-.886-.31c-.139-.062-.104-.235-.051-.35a9.85 9.85 0 01.383-.726c.084-.149.212-.242.388-.228z"/><path class="st16" d="M16.585 17.575l.094-.004.19-.026.128-.029.076-.02 1.257-.42c.05.157.183.145.297.116.294-.075.583-.167.874-.25.187-.054.38.006.451.137-.013.008-.024.02-.039.024-.836.248-1.673.491-2.507.745-.353.107-.705.19-1.078.126l.033-.397.224-.002z"/><path class="st17" d="M16.36 17.577c-.01.132-.02.265-.032.397l-.16-.004-.061-.418-.002-.013.129.01.127.028z"/><path class="st6" d="M8.702 15.61c.277-.327.559-.652.831-.984.166-.201.345-.386.619-.418.157-.018.322.001.482.022.212.027.422.085.635.105.262.025.526.016.789.037.335.026.621.17.887.37.324.242.52.577.715.912.16.278.29.573.443.855.085.157.192.302.288.452l-.165-.042-.734-.19c-.04-.02-.078-.05-.121-.06-.513-.136-1.025-.277-1.541-.4-.733-.176-1.474-.318-2.2-.513-.309-.083-.609-.156-.928-.145z"/><path class="st17" d="M8.702 15.61c.319-.01.62.063.928.146.726.195 1.467.337 2.2.512.516.124 1.028.265 1.54.4.044.012.082.04.123.06.14.143.284.282.42.43.053.058.086.134.128.202l-1.59-.468c-.041-.04-.077-.092-.127-.119a4.805 4.805 0 00-.465-.225c-.321-.128-.641-.262-.972-.362-.174-.052-.37-.035-.557-.052-.208-.02-.44.008-.62-.073-.442-.197-.888-.23-1.355-.164l-.101-.177.448-.11z"/><path class="st2" d="M14.041 17.36c-.042-.068-.075-.144-.129-.203-.135-.147-.279-.286-.42-.428l.734.19.165.042 1.716.59.062.42c-.027 0-.055.008-.079 0-.683-.202-1.366-.407-2.049-.61z"/><path class="st4" d="M11.589 24.861c-.08-.109-.164-.216-.241-.328-.475-.687-.938-1.382-1.427-2.06-.217-.301-.494-.561-.726-.854-.152-.192-.356-.357-.398-.618.798.673 1.547 1.391 2.147 2.246.343.489.572 1.022.645 1.614z"/><path class="st5" d="M16.997 17.516l-.127.03c0-.143.003-.285-.001-.428-.009-.33-.037-.661-.027-.991.013-.417.072-.832.084-1.248.01-.335-.01-.672-.032-1.007-.02-.313-.074-.624-.084-.937-.015-.456-.008-.913-.003-1.369.004-.321.019-.642.03-.963.01-.292.19-.486.408-.65.232-.174.24-.173.448.042.185.19.358.392.541.585.045.047.107.078.161.116.01.024.022.047.03.072.124.42.293.813.61 1.14.149.153.31.337.36.533.097.381.122.781.176 1.174.043.316.078.633.13.948a.57.57 0 00.44.48c.221.058.454.097.683.1.464.007.93.002 1.393-.033.236-.018.473-.093.697-.174.176-.063.229-.209.164-.383a6.55 6.55 0 00-.288-.689c-.204-.401-.386-.804-.328-1.27.01-.081.001-.165.001-.248.02-.068.063-.137.058-.203a1.76 1.76 0 00-.54-1.156c-.388-.381-.858-.648-1.33-.914-.062-.08-.133-.157-.185-.243-.328-.542-.661-1.08-.974-1.63-.28-.495-.533-1.005-.806-1.504a1.504 1.504 0 00-.232-.311c-.085-.09-.2-.046-.215.076-.017.137-.03.276-.033.415-.005.301-.004.603 0 .904.003.27.006.537-.09.796-.033.091-.047.189-.07.283-.128.156-.26.31-.382.47-.165.214-.364.201-.494-.037-.179-.328-.186-.68-.154-1.039.021-.226.036-.452.043-.68.007-.232-.001-.466.002-.7.009-.651.035-1.303.027-1.955-.009-.8-.08-1.592-.252-2.379-.073-.337-.003-.705.001-1.059.011.054.034.108.03.161-.03.463.061.901.231 1.334.082.207.088.443.12.667.051.357.096.714.142 1.072.008.056.005.114.02.168.016.054.038.12.08.148.032.02.109.002.15-.023.23-.136.25-.144.392.058.247.352.498.704.715 1.074.268.457.51.93.751 1.401.217.424.403.864.631 1.282.23.422.405.887.787 1.21.299.251.622.476.94.705.372.267.612.627.763 1.043.085.232.122.48.2.715.08.245.171.489.282.722.224.474.472.937.696 1.41.151.318.33.611.599.848.037.033.044.098.065.148-.359-.046-.704.015-1.043.124-.031.003-.063.003-.093.01l-1.052.237c-.071-.043-.14-.115-.214-.123-.403-.042-.807-.065-1.21-.102-.267-.024-.537-.038-.797-.097-.337-.077-.666-.189-.996-.296a.338.338 0 01-.248-.355c.02-.647-.02-1.29-.098-1.933-.038-.306-.084-.609-.216-.897a6.415 6.415 0 01-.345-.914c-.075-.268-.154-.532-.336-.744-.208-.243-.517-.357-.736-.08a.68.68 0 00-.14.366c-.017.36-.002.721-.007 1.081-.003.238-.027.475-.022.712.004.194.035.386.055.579.036.328.081.654.105.983.02.262.025.527.013.79-.014.298-.078.594-.081.891-.006.554.017 1.107.027 1.661z"/><path class="st6" d="M18.046 8.859c.023-.094.037-.192.07-.283.096-.259.092-.527.09-.796a32.899 32.899 0 010-.904c.002-.139.016-.278.033-.415.015-.122.13-.166.215-.076.09.093.17.199.232.311.273.5.526 1.009.806 1.503.313.55.646 1.09.974 1.63.052.087.123.163.186.244h-.127l-.038-.047-.01.01.048.037c.03.046.053.102.095.136.177.145.362.281.54.426.24.193.494.374.708.592.259.264.415.594.467.963.012.08.014.16.128.156 0 .083.01.167-.001.249-.058.465.124.868.328 1.27.112.221.202.454.288.688.065.174.012.32-.164.383a2.73 2.73 0 01-.697.174c-.463.035-.929.04-1.393.033a2.939 2.939 0 01-.684-.1.572.572 0 01-.439-.48c-.052-.315-.087-.632-.13-.948-.054-.393-.079-.793-.176-1.174-.05-.196-.211-.38-.36-.534-.317-.326-.486-.719-.61-1.14-.008-.024-.02-.047-.03-.071-.003-.283-.21-.487-.297-.737a.873.873 0 01.037-.718c.042-.081.065-.172.096-.255l-.185-.127zm4.076 3.08c-.084-.192-.122-.402-.245-.543-.326-.372-.693-.708-1.144-.941-.371-.192-.683-.437-.881-.816a1.99 1.99 0 00-.362-.464.671.671 0 00-.584-.182c-.507.077-.788.598-.516 1.072.18.31.338.633.532.935.149.232.34.45.647.475a9.7 9.7 0 00.965.027c.29-.005.52.1.72.296.116.113.236.223.364.322.105.08.239.11.355.038.064-.04.093-.133.149-.219z"/><path class="st9" d="M16.139 6.126v1.412c0 .661.002 1.323-.003 1.984 0 .117-.03.234-.054.35-.022.113-.08.144-.173.054-.316-.308-.65-.591-.865-.997-.113-.213-.363-.364-.569-.52-.178-.135-.3-.3-.392-.496-.039-.084-.078-.17-.127-.248-.18-.294-.16-.57.05-.845a4.93 4.93 0 00.324-.494c.15-.255.27-.528.44-.768.143-.202.347-.361.51-.55.127-.145.227-.31.351-.457a.42.42 0 01.187-.105c.076-.025.148-.01.167.088.05.263.117.523.15.787.032.266.032.536.046.804l-.042.001zm-.285-.156c-.045-.203-.071-.392-.132-.57-.028-.081-.112-.175-.19-.197-.053-.016-.16.066-.21.129-.31.39-.308.822-.007 1.228.144.194.29.19.386-.032.076-.177.104-.373.153-.558z"/><path class="st8" d="M24.798 10.915c-.232-.04-.523-.085-.81-.144-.252-.051-.51-.092-.747-.184-.354-.137-.616-.404-.87-.677-.405-.433-.698-.935-.951-1.458-.257-.531-.519-1.066-.622-1.652-.059-.331.087-.546.352-.537a1.3 1.3 0 01.533.122c.4.204.786.438 1.174.665.298.175.593.356.887.537.438.269.887.535 1.16.981.135.22.225.478.285.73.088.369.147.746.189 1.123.032.285-.13.485-.58.494zm-3.14-3.222l.017.002c0 .067-.015.138.002.2.168.615.438 1.171.94 1.597.3.255.692.327.986.159.131-.076.243-.187.357-.29.025-.022.024-.075.028-.115.027-.22-.067-.414-.189-.578a4.806 4.806 0 00-.618-.7 2.752 2.752 0 00-1.137-.621c-.138-.037-.272-.028-.345.107-.037.068-.03.159-.042.24z"/><path class="st17" d="M17.86 24.925c.353-.762.34-1.599.5-2.4.119-.598.2-1.203.298-1.805.146.007.126-.117.155-.196.072-.189.143-.235.346-.207.097.013.133.058.12.158-.088.68-.249 1.345-.391 2.015a4.414 4.414 0 00-.096 1.383c.024.232-.055.48-.112.713-.15.612-.308 1.221-.474 1.829-.04.143-.123.275-.187.413-.012-.087-.031-.173-.035-.26-.013-.396-.016-.793-.037-1.189-.009-.152-.057-.303-.087-.454z"/><path class="st16" d="M23.55 16.746l-.325-.07c.078-.147-.033-.163-.134-.189-.11-.028-.23-.043-.325-.098a.87.87 0 00-.65-.096c-.168.035-.272.124-.32.282-.262.067-.524.131-.784.203-.354.097-.707.2-1.06.3-.071-.13-.264-.19-.45-.136-.292.083-.581.175-.875.25-.114.029-.247.041-.297-.117.018-.01.035-.022.055-.028.887-.25 1.774-.502 2.662-.747.397-.11.797-.204 1.196-.306l1.052-.238c.03-.006.062-.006.093-.009-.023.066-.028.146-.072.194-.097.105-.052.172.035.245.088.074.18.144.257.228.108.12.081.243-.058.332zm-5.69 8.179c.03.151.078.302.087.454.021.396.024.793.037 1.19.004.086.023.172.035.259l-.038.214-.023.158-.193.284.091-.296-.044-.018c-.038.034-.08.065-.112.103-.095.113-.175.155-.272-.005-.067-.111-.17-.08-.229.01-.068.108-.115.23-.163.349-.106.26-.108.263-.355.163l-.034-.527.45-.905.667-1.276c.028-.054.064-.105.096-.157zm1.358-5.211c.304-.113.604-.237.914-.335.328-.103.594-.304.873-.486.056-.036.116-.07.174-.104.17-.045.354-.063.509-.138.465-.227.918-.478 1.378-.716.023-.012.064.008.096.013-.426.269-.852.538-1.278.805-.067.041-.138.076-.209.112-.365.184-.728.374-1.097.55-.304.145-.614.277-.925.408-.168.071-.3-.03-.435-.109z"/><path class="st16" d="M23.162 17.948c-.032-.005-.073-.025-.096-.013-.46.238-.913.489-1.378.716-.155.075-.339.093-.51.138l1.128-.755c.144-.042.298-.065.429-.131.222-.114.429-.257.644-.384.175-.104.351-.205.53-.301.033-.018.08-.01.133.007a4.82 4.82 0 01-.88.723zm-6.481 9.842c.247.1.249.098.355-.163.048-.119.095-.24.163-.348.058-.09.162-.122.23-.011.096.16.176.118.27.005.033-.038.075-.069.113-.103l.044.018-.091.296-.132.21c-.211-.021-.377.085-.53.199-.183.134-.311.111-.422-.103zm.104.974c.008-.149.116-.199.24-.232l-.24.232zm-.228.276l.215-.226-.215.225zm.793-.935l.16-.22-.16.22zm-.22.282l.059-.069-.06.069zm-1.818-3.214l.736 1.43c-.165.1-.241.09-.366-.05-.24-.271-.446-.562-.543-.913-.05-.182.034-.395.173-.467zm-2.86-8.281c-.36-.1-.722-.196-1.08-.301-.283-.083-.56-.117-.855-.043-.3.075-.61.125-.916.173-.12.02-.15.08-.14.181.017.172.082.32.23.424l.656.458c.054.178.01.23-.175.193a.507.507 0 01-.163-.058c-.474-.288-.944-.58-1.418-.868-.15-.09-.306-.17-.46-.254-.11-.074-.171-.174-.163-.309l.005-.215a.631.631 0 01.382-.376c.467-.067.913-.033 1.355.164.18.081.412.053.62.073.186.017.383 0 .557.052.33.1.651.234.972.362.16.064.313.145.465.225.05.027.086.078.128.119z"/><path class="st17" d="M8.131 16.797c.154.085.31.163.46.254.474.288.944.58 1.418.868.048.03.107.046.163.058.184.036.229-.015.175-.193.382.249.765.497 1.147.747.092.06.186.119.274.185a5.25 5.25 0 001.723.866c.085.025.165.066.248.1-.223.153-.479.147-.707.066-.27-.095-.516-.257-.773-.387-.126-.064-.25-.135-.383-.182-.463-.161-.848-.45-1.255-.706-.65-.412-1.32-.794-1.969-1.208-.195-.124-.348-.31-.52-.468zm-.158-.524l-.005.215-.087-.178.092-.037z"/><path class="st12" d="M22.243 15.994c-.399.102-.8.197-1.196.306-.888.245-1.775.497-2.662.747-.02.006-.037.019-.055.028l-1.257.42c-.025.008-.05.014-.076.021-.01-.554-.033-1.107-.027-1.661.003-.297.067-.593.08-.891a6.595 6.595 0 00-.012-.79c-.024-.329-.07-.655-.105-.983-.02-.193-.051-.385-.055-.579-.005-.237.02-.474.022-.712.005-.36-.01-.721.008-1.08a.68.68 0 01.139-.366c.22-.278.528-.164.736.079.182.212.26.476.336.744.088.312.21.617.345.914.132.288.178.591.216.897.078.642.117 1.286.098 1.933a.338.338 0 00.248.355c.33.107.66.22.996.296.26.06.53.073.797.097.403.037.807.06 1.21.102.075.008.143.08.214.123z"/><path class="st15" d="M20.525 10.073h.127c.47.266.941.533 1.329.914.324.32.507.707.54 1.156.005.066-.037.135-.058.203-.114.004-.116-.076-.128-.156a1.693 1.693 0 00-.467-.963c-.214-.218-.468-.399-.707-.592-.179-.145-.364-.28-.541-.426-.042-.034-.064-.09-.095-.136z"/><path class="st6" d="M22.122 11.94c-.056.085-.085.178-.15.218-.115.073-.25.043-.354-.038a4.198 4.198 0 01-.364-.322.961.961 0 00-.72-.296c-.322.006-.645 0-.965-.027-.307-.024-.498-.243-.647-.475-.194-.302-.353-.625-.532-.935-.272-.474.01-.995.516-1.072a.671.671 0 01.584.182c.138.139.273.293.362.464.198.379.51.624.881.816.45.233.818.569 1.144.941.123.14.161.35.245.543z"/><path class="st15" d="M20.525 10.073l-.049-.037.01-.01.039.047z"/><path class="st9" d="M15.854 5.97c-.049.185-.077.38-.153.558-.095.222-.242.226-.386.032-.301-.406-.303-.838.007-1.228.05-.063.157-.145.21-.13.078.023.162.117.19.198.06.178.087.367.132.57z"/><path class="st13" d="M21.657 7.693c.013-.08.005-.171.042-.24.073-.134.207-.143.345-.106.43.116.813.328 1.137.62.23.209.433.452.618.701.122.164.216.358.19.578-.005.04-.004.093-.029.116-.114.102-.226.213-.357.289-.294.168-.686.096-.986-.159-.502-.426-.772-.982-.94-1.596-.017-.063-.002-.134-.002-.201l-.018-.002z"/><path class="st16" d="M22.502 16.56c-.237-.044-.473-.068-.706.015.048-.158.152-.247.32-.282a.87.87 0 01.65.096c.095.055.215.07.325.098.101.026.212.042.134.188l-.723-.115z"/></svg>